<svg width="18" height="18" viewBox="0 0 18 18" fill="none" xmlns="http://www.w3.org/2000/svg">
<rect width="18" height="18" rx="9" fill="white"/>
<path d="M13.125 5.66667C13.2245 5.66667 13.3198 5.70179 13.3902 5.7643C13.4605 5.82681 13.5 5.91159 13.5 6V11H4.5V6C4.5 5.91159 4.53951 5.82681 4.60984 5.7643C4.68016 5.70179 4.77554 5.66667 4.875 5.66667H13.125ZM4.875 5C4.57663 5 4.29048 5.10536 4.0795 5.29289C3.86853 5.48043 3.75 5.73478 3.75 6V11.6667H14.25V6C14.25 5.73478 14.1315 5.48043 13.9205 5.29289C13.7095 5.10536 13.4234 5 13.125 5H4.875ZM3 12H15C15 12.2652 14.8815 12.5196 14.6705 12.7071C14.4595 12.8946 14.1734 13 13.875 13H4.125C3.82663 13 3.54048 12.8946 3.3295 12.7071C3.11853 12.5196 3 12.2652 3 12Z" fill="black"/>
</svg>